<svg version="1.1" xmlns="http://www.w3.org/2000/svg" viewBox="-246.2 -1024.9857055664063 3147.4 1353.1857055664063"><desc>Created with Snap</desc><defs></defs><g><rect x="-246.2" y="-1024.9857055664063" width="3147.4" height="1353.1857055664063" fill="#D1411E" style=""></rect><g><g transform="matrix(1,0,0,-1,0,0)"><path d="M451 686Q455 688 463 688Q467 683 472 680Q477 678 483 675Q489 673 494 670Q500 668 501 667Q508 665 514 662Q521 660 525 653Q536 650 542 644Q548 639 562 637Q567 616 576 606Q585 597 597 581Q597 570 601 561Q606 552 606 541Q606 532 603 523Q601 514 601 505Q601 497 603 488Q606 480 606 472Q606 464 604 460Q608 453 607 451Q607 450 615 445Q612 440 610 437Q609 435 609 433Q609 431 609 428Q610 426 610 421Q610 415 608 412Q607 409 605 406Q604 403 602 398Q601 394 602 385Q595 381 594 377Q593 373 589 371Q591 365 591 361Q584 355 583 350Q583 345 578 339Q579 334 579 330Q579 327 581 322Q577 314 571 313Q570 308 562 306Q562 303 562 300Q562 298 563 296Q555 296 552 295Q550 294 548 292Q547 291 545 288Q544 286 540 283Q537 275 533 270Q530 265 521 269Q514 264 508 261Q502 259 496 251Q489 251 480 246Q472 242 462 237Q452 232 440 227Q428 223 415 223Q409 221 403 217Q398 214 392 219Q376 217 361 212Q346 207 329 207Q326 207 318 209Q315 204 313 201Q312 199 305 198Q291 200 287 199Q284 198 273 198Q269 198 265 198Q261 199 257 199Q251 199 245 196Q240 194 234 194Q224 191 216 191Q209 192 204 193Q195 189 190 190Q189 182 190 173Q191 165 193 157Q190 155 187 151Q185 148 183 145Q188 139 188 135Q188 131 188 126Q188 122 189 115Q191 109 198 100Q196 93 197 90Q199 87 199 83Q199 77 196 74Q194 72 192 68Q191 64 192 59Q193 55 193 51Q193 41 188 32Q183 24 180 16Q173 15 172 14Q172 13 167 11Q164 3 159 -2Q154 -7 151 -15Q146 -21 138 -21Q130 -20 122 -21Q120 -17 118 -13Q116 -8 113 -4Q108 -1 107 5Q99 10 99 13Q100 16 95 19Q96 26 95 33Q95 41 97 47Q91 54 91 62Q91 67 93 69Q95 71 97 76Q102 88 98 105Q95 123 103 137L99 147Q99 153 100 154Q102 156 104 161Q97 173 101 178Q101 186 98 189Q95 193 99 203Q99 208 98 212Q98 216 99 221Q92 224 89 224Q89 229 90 236Q92 243 99 245Q97 262 98 278Q100 295 100 312Q100 323 97 334Q95 345 95 352Q93 365 93 368Q93 372 94 375Q95 379 94 383Q94 387 89 395Q96 402 94 407Q92 412 94 420Q88 434 89 445Q91 457 91 471Q85 479 85 486Q85 493 85 502Q85 508 83 514Q81 520 81 527Q76 535 77 537Q76 541 77 544Q78 548 78 552Q78 559 75 566Q72 574 72 582Q72 584 73 587Q74 590 74 592Q74 599 71 604Q68 609 71 617Q66 627 63 633Q60 639 63 650Q61 656 61 660Q62 674 69 686Q76 698 90 703Q97 705 103 704Q110 703 117 707Q127 708 132 701Q145 704 149 703Q153 702 161 702Q164 702 166 704Q168 707 170 709Q175 707 179 705Q183 704 188 703Q207 711 227 716Q248 721 268 712Q273 713 276 714Q279 716 284 716Q295 710 312 710Q330 710 344 707Q353 706 355 705Q358 705 360 703Q363 702 365 701Q368 700 373 702Q376 700 379 698Q383 696 386 694Q389 695 392 694Q395 694 399 694Q402 694 405 695Q408 697 410 698Q414 699 419 699Q424 699 428 699Q432 702 440 696Q448 691 451 686ZM506 391L508 393Q507 401 512 405Q517 409 519 416Q515 424 517 437Q519 451 519 460Q518 465 515 470Q512 476 512 482Q505 505 513 520Q511 525 510 531Q510 537 509 542Q507 551 501 557Q495 563 492 571Q483 574 477 577Q472 581 466 584Q461 587 454 589Q447 591 436 590Q434 593 432 595Q430 598 428 600Q420 600 417 603Q414 606 409 607Q404 609 390 610Q377 612 374 612Q361 610 356 610Q351 610 339 615Q328 620 317 617Q309 625 302 627Q295 629 284 625Q277 631 270 630Q263 630 255 628Q253 630 250 631Q247 632 245 634Q235 623 219 628Q216 626 212 625Q209 624 206 623Q201 615 194 611Q188 605 181 608Q173 616 159 609Q159 603 161 598Q164 594 159 589Q165 575 162 572Q159 569 160 561Q164 555 165 549Q166 543 166 536Q167 530 168 523Q170 516 175 509Q169 499 173 491Q177 483 175 472Q180 465 180 459Q181 453 188 445Q184 443 178 439Q178 429 181 422Q185 416 179 406Q182 401 184 393Q187 386 185 381Q190 374 187 366Q188 353 190 343Q192 334 192 321Q199 313 196 302Q194 291 194 282Q205 283 210 283Q216 283 227 288L239 278Q243 283 249 283Q255 283 260 281Q264 284 267 285Q270 287 273 290Q282 288 289 290Q297 292 305 288Q313 291 319 292Q325 294 333 292Q338 295 341 298Q345 301 350 303Q352 298 353 297Q354 297 358 295Q360 297 362 298Q364 300 366 302Q375 302 382 306Q390 310 398 308Q402 310 405 311Q408 313 411 317Q421 311 426 314Q432 317 443 317Q445 317 451 321Q458 326 463 327Q466 332 470 335Q474 338 479 341Q481 348 484 352Q487 356 490 360Q493 364 495 369Q498 374 498 383L506 391ZM837 49Q835 46 833 43Q831 41 830 38Q824 36 820 33Q816 31 809 31Q796 18 782 11Q776 16 768 17Q761 19 753 18Q753 19 750 22Q747 26 743 29Q740 33 737 36Q734 40 733 40Q733 52 730 64Q728 76 728 87Q728 95 731 103Q734 111 734 119Q734 128 733 137Q733 146 733 155Q733 159 734 162Q735 165 735 169Q735 174 732 178Q730 183 730 188Q730 193 731 197Q733 201 733 206Q733 213 728 218Q729 223 731 226Q733 229 735 234Q728 254 733 270Q738 286 738 306Q738 310 736 312Q734 315 733 319Q738 326 735 330Q732 335 730 340Q733 343 733 351Q733 359 733 363Q734 368 732 370Q731 372 730 377Q735 383 731 395Q728 407 728 415Q728 419 728 426Q729 434 729 442Q729 450 729 457Q729 464 728 468Q726 471 724 474Q722 477 722 481Q722 486 724 492Q726 498 725 503Q730 506 732 507Q734 508 740 506Q742 513 747 520Q752 527 760 527Q764 527 767 524Q770 521 773 519Q776 517 779 516Q782 516 785 521Q791 519 794 514Q797 510 805 509Q807 502 811 495Q815 489 815 482Q815 477 813 472Q812 468 812 463Q812 460 813 457Q815 454 815 450Q815 444 813 438Q812 432 812 425Q812 419 815 415Q818 412 818 407Q818 399 817 397Q817 395 822 388Q823 383 821 380Q820 377 820 374Q820 369 822 366Q825 363 825 360Q825 357 823 354Q822 351 822 348Q822 323 825 301Q826 295 828 289Q830 284 830 279Q830 273 828 267Q827 262 827 256Q827 244 828 232Q830 221 828 209Q830 204 830 199Q830 195 835 193Q833 188 830 186Q828 184 830 177Q828 169 832 165Q836 161 836 157Q836 156 833 154Q830 153 830 148Q830 144 832 141Q835 139 835 135Q835 130 834 125Q833 120 833 115Q833 104 836 92Q839 80 829 70Q834 65 833 59Q832 53 837 49ZM1394 48Q1389 46 1385 42Q1381 38 1376 38Q1368 38 1360 41Q1352 44 1346 37Q1335 43 1316 39Q1298 36 1284 36Q1278 36 1276 33Q1274 30 1269 28Q1258 29 1246 28Q1234 28 1222 28Q1215 28 1209 29Q1203 31 1197 31Q1191 31 1185 28Q1180 26 1174 26Q1170 26 1166 27Q1162 28 1159 24Q1147 30 1132 30Q1117 30 1102 28Q1087 26 1071 24Q1056 22 1043 23Q1041 22 1035 19Q1030 17 1023 14Q1017 11 1011 8Q1006 6 1005 6Q1001 6 999 7Q998 8 997 8Q996 9 993 8Q991 7 986 3Q984 3 978 3Q973 4 967 5Q961 6 955 7Q950 9 949 10Q946 18 941 17Q936 16 931 18Q930 18 926 21Q923 25 918 29Q914 34 910 38Q906 42 905 44Q907 47 908 50Q910 54 912 57Q914 64 911 65Q908 66 907 69Q917 75 922 83Q928 91 927 103Q934 104 939 108Q944 112 948 117Q960 119 967 125Q975 132 981 142Q984 142 986 144Q989 146 993 147Q998 152 1000 157Q1002 163 1010 166Q1008 171 1008 173Q1008 175 1009 176Q1011 178 1012 180Q1014 182 1014 187Q1025 191 1033 198Q1041 206 1052 210Q1050 218 1054 220Q1058 222 1056 230Q1061 234 1063 237Q1066 240 1071 242Q1070 249 1072 251Q1074 253 1079 258Q1084 263 1084 266Q1085 269 1087 275Q1090 281 1096 282Q1096 286 1097 289Q1099 293 1099 297Q1106 301 1110 307Q1114 314 1117 320Q1121 327 1125 333Q1129 340 1137 345Q1131 351 1134 353Q1137 356 1138 362Q1143 362 1143 364Q1144 366 1150 365Q1150 372 1153 375Q1156 378 1160 380Q1164 382 1167 385Q1170 388 1170 394Q1187 394 1190 404Q1194 414 1202 421Q1206 425 1209 427Q1212 430 1212 436Q1206 443 1196 443Q1186 444 1175 444Q1165 444 1156 445Q1148 447 1145 455Q1137 453 1134 450Q1131 448 1125 445Q1105 452 1089 448Q1074 445 1054 445Q1049 445 1045 446Q1042 447 1037 447Q1029 447 1022 444Q1016 441 1008 441Q997 441 987 443Q977 445 966 445Q958 445 949 443Q940 442 933 445Q920 457 919 459Q919 462 910 468Q911 475 907 480Q904 486 904 493Q904 499 908 505Q913 512 919 518Q925 524 932 527Q939 531 945 531Q953 531 963 529Q974 527 980 523Q1006 523 1025 525Q1045 527 1061 519Q1090 524 1119 526Q1148 529 1178 529Q1189 529 1200 528Q1211 527 1222 527Q1226 527 1229 527Q1233 528 1238 528Q1242 528 1245 526Q1249 525 1253 525Q1263 525 1275 527Q1288 529 1297 526Q1306 530 1312 532Q1319 535 1330 532Q1338 520 1354 512Q1356 503 1364 496Q1365 490 1363 482Q1362 474 1366 469Q1362 463 1357 461Q1353 459 1353 450Q1347 450 1344 447Q1341 445 1339 442Q1337 439 1334 436Q1332 434 1326 435Q1322 433 1321 430Q1320 428 1318 425Q1317 423 1314 421Q1312 420 1306 421Q1308 411 1300 398Q1292 385 1282 382Q1278 368 1268 360Q1258 352 1253 339Q1250 339 1247 337Q1245 336 1243 336Q1240 331 1237 327Q1234 323 1232 318Q1225 318 1221 314Q1218 311 1215 307Q1212 304 1208 300Q1204 297 1197 296L1197 280Q1190 275 1186 265Q1183 256 1177 249Q1174 245 1171 240Q1169 236 1170 231Q1163 228 1160 221Q1158 214 1156 207Q1144 203 1137 194Q1131 186 1124 176Q1118 167 1112 158Q1107 150 1106 146Q1103 142 1099 140Q1096 139 1093 137Q1091 136 1089 133Q1088 130 1088 123Q1088 120 1092 117Q1096 114 1101 112Q1106 110 1111 109Q1116 108 1119 108Q1127 108 1133 109Q1140 110 1148 110Q1150 110 1152 108Q1155 107 1158 107Q1163 107 1166 108Q1170 110 1175 110Q1188 110 1207 109Q1227 109 1238 117Q1246 118 1258 117Q1271 117 1277 123Q1282 118 1293 119Q1304 120 1311 120Q1316 119 1317 121Q1319 123 1322 126Q1340 130 1357 133Q1375 137 1392 139Q1388 123 1404 113Q1407 94 1402 79Q1398 65 1394 48ZM1910 48Q1905 46 1901 42Q1897 38 1892 38Q1884 38 1876 41Q1868 44 1862 37Q1851 43 1832 39Q1814 36 1800 36Q1794 36 1792 33Q1790 30 1785 28Q1774 29 1762 28Q1750 28 1738 28Q1731 28 1725 29Q1719 31 1713 31Q1707 31 1701 28Q1696 26 1690 26Q1686 26 1682 27Q1678 28 1675 24Q1663 30 1648 30Q1633 30 1618 28Q1603 26 1587 24Q1572 22 1559 23Q1557 22 1551 19Q1546 17 1539 14Q1533 11 1527 8Q1522 6 1521 6Q1517 6 1515 7Q1514 8 1513 8Q1512 9 1509 8Q1507 7 1502 3Q1500 3 1494 3Q1489 4 1483 5Q1477 6 1471 7Q1466 9 1465 10Q1462 18 1457 17Q1452 16 1447 18Q1446 18 1442 21Q1439 25 1434 29Q1430 34 1426 38Q1422 42 1421 44Q1423 47 1424 50Q1426 54 1428 57Q1430 64 1427 65Q1424 66 1423 69Q1433 75 1438 83Q1444 91 1443 103Q1450 104 1455 108Q1460 112 1464 117Q1476 119 1483 125Q1491 132 1497 142Q1500 142 1502 144Q1505 146 1509 147Q1514 152 1516 157Q1518 163 1526 166Q1524 171 1524 173Q1524 175 1525 176Q1527 178 1528 180Q1530 182 1530 187Q1541 191 1549 198Q1557 206 1568 210Q1566 218 1570 220Q1574 222 1572 230Q1577 234 1579 237Q1582 240 1587 242Q1586 249 1588 251Q1590 253 1595 258Q1600 263 1600 266Q1601 269 1603 275Q1606 281 1612 282Q1612 286 1613 289Q1615 293 1615 297Q1622 301 1626 307Q1630 314 1633 320Q1637 327 1641 333Q1645 340 1653 345Q1647 351 1650 353Q1653 356 1654 362Q1659 362 1659 364Q1660 366 1666 365Q1666 372 1669 375Q1672 378 1676 380Q1680 382 1683 385Q1686 388 1686 394Q1703 394 1706 404Q1710 414 1718 421Q1722 425 1725 427Q1728 430 1728 436Q1722 443 1712 443Q1702 444 1691 444Q1681 444 1672 445Q1664 447 1661 455Q1653 453 1650 450Q1647 448 1641 445Q1621 452 1605 448Q1590 445 1570 445Q1565 445 1561 446Q1558 447 1553 447Q1545 447 1538 444Q1532 441 1524 441Q1513 441 1503 443Q1493 445 1482 445Q1474 445 1465 443Q1456 442 1449 445Q1436 457 1435 459Q1435 462 1426 468Q1427 475 1423 480Q1420 486 1420 493Q1420 499 1424 505Q1429 512 1435 518Q1441 524 1448 527Q1455 531 1461 531Q1469 531 1479 529Q1490 527 1496 523Q1522 523 1541 525Q1561 527 1577 519Q1606 524 1635 526Q1664 529 1694 529Q1705 529 1716 528Q1727 527 1738 527Q1742 527 1745 527Q1749 528 1754 528Q1758 528 1761 526Q1765 525 1769 525Q1779 525 1791 527Q1804 529 1813 526Q1822 530 1828 532Q1835 535 1846 532Q1854 520 1870 512Q1872 503 1880 496Q1881 490 1879 482Q1878 474 1882 469Q1878 463 1873 461Q1869 459 1869 450Q1863 450 1860 447Q1857 445 1855 442Q1853 439 1850 436Q1848 434 1842 435Q1838 433 1837 430Q1836 428 1834 425Q1833 423 1830 421Q1828 420 1822 421Q1824 411 1816 398Q1808 385 1798 382Q1794 368 1784 360Q1774 352 1769 339Q1766 339 1763 337Q1761 336 1759 336Q1756 331 1753 327Q1750 323 1748 318Q1741 318 1737 314Q1734 311 1731 307Q1728 304 1724 300Q1720 297 1713 296L1713 280Q1706 275 1702 265Q1699 256 1693 249Q1690 245 1687 240Q1685 236 1686 231Q1679 228 1676 221Q1674 214 1672 207Q1660 203 1653 194Q1647 186 1640 176Q1634 167 1628 158Q1623 150 1622 146Q1619 142 1615 140Q1612 139 1609 137Q1607 136 1605 133Q1604 130 1604 123Q1604 120 1608 117Q1612 114 1617 112Q1622 110 1627 109Q1632 108 1635 108Q1643 108 1649 109Q1656 110 1664 110Q1666 110 1668 108Q1671 107 1674 107Q1679 107 1682 108Q1686 110 1691 110Q1704 110 1723 109Q1743 109 1754 117Q1762 118 1774 117Q1787 117 1793 123Q1798 118 1809 119Q1820 120 1827 120Q1832 119 1833 121Q1835 123 1838 126Q1856 130 1873 133Q1891 137 1908 139Q1904 123 1920 113Q1923 94 1918 79Q1914 65 1910 48ZM2594 71Q2593 66 2585 63Q2577 61 2572 56Q2572 50 2569 47Q2566 45 2567 37Q2562 35 2557 28Q2552 21 2547 21Q2540 21 2535 24Q2531 28 2522 26Q2514 41 2500 47Q2493 60 2486 72Q2479 84 2473 97Q2458 110 2449 114Q2440 119 2432 117Q2425 116 2416 110Q2408 104 2393 95Q2383 95 2365 95Q2348 95 2340 99Q2337 100 2334 101Q2332 103 2329 103Q2325 103 2321 101Q2318 100 2314 100Q2310 100 2307 101Q2304 102 2300 103Q2296 103 2293 102Q2291 102 2288 103Q2282 100 2279 97Q2277 95 2273 95Q2259 100 2243 102Q2228 104 2214 112Q2206 114 2205 109Q2204 105 2199 105Q2188 106 2179 104Q2170 103 2159 103Q2154 103 2148 104Q2143 105 2138 105Q2132 105 2127 102Q2122 100 2117 100Q2113 100 2110 101Q2107 103 2102 103Q2097 103 2093 100Q2090 98 2086 98Q2081 98 2077 98Q2073 99 2069 99Q2060 99 2056 95Q2052 92 2050 86Q2049 81 2048 75Q2047 70 2042 66Q2044 51 2041 42Q2038 33 2029 21Q2016 20 2004 17Q1992 15 1979 15Q1971 15 1968 20Q1965 25 1960 30Q1953 36 1949 42Q1946 48 1941 56Q1942 60 1945 62Q1949 65 1952 67Q1950 73 1951 77Q1953 81 1956 85Q1959 89 1961 93Q1964 98 1964 103Q1964 109 1964 111Q1965 113 1966 114Q1967 115 1968 116Q1969 117 1971 121Q1973 125 1972 128Q1971 132 1973 136Q1977 145 1982 152Q1988 160 1993 168Q1995 173 1996 177Q1998 181 2000 185Q2003 193 2011 200L2011 213Q2014 217 2016 220Q2018 223 2023 225Q2022 237 2029 245Q2036 254 2038 265Q2052 273 2061 287Q2071 302 2068 319Q2076 322 2080 330Q2084 338 2092 341Q2092 349 2094 355Q2097 361 2097 369Q2106 374 2109 382Q2113 391 2117 399Q2118 401 2121 406Q2124 412 2127 418Q2130 424 2132 428Q2135 433 2135 435Q2153 465 2156 491Q2162 497 2164 499Q2167 502 2168 504Q2169 507 2169 510Q2169 514 2171 521Q2174 520 2176 523Q2179 527 2182 532Q2186 537 2191 541Q2197 546 2206 546Q2216 546 2225 544Q2234 542 2244 541Q2249 535 2254 530Q2260 525 2265 518L2265 506Q2273 496 2280 485Q2288 475 2300 470Q2299 459 2304 457Q2310 456 2317 451Q2316 442 2318 437Q2321 433 2324 427Q2328 422 2331 417Q2334 413 2335 411Q2340 402 2347 402Q2346 397 2350 395Q2354 394 2352 387Q2361 378 2374 373Q2374 366 2379 360Q2384 355 2389 352Q2390 347 2393 345Q2396 343 2399 341Q2404 338 2406 333Q2409 328 2414 326Q2415 317 2424 305Q2433 294 2443 282Q2453 271 2461 261Q2469 252 2468 247Q2476 242 2483 236Q2491 231 2501 227Q2501 219 2500 215Q2500 212 2501 209Q2502 207 2505 205Q2508 203 2515 198Q2514 193 2519 186Q2521 182 2522 177Q2523 173 2526 168Q2531 160 2539 155Q2548 151 2555 145Q2560 134 2563 123Q2566 112 2570 101Q2577 94 2585 91Q2586 86 2587 80Q2589 74 2594 71ZM2362 259Q2356 260 2353 263Q2350 267 2345 268Q2346 281 2340 282Q2334 283 2327 290Q2327 295 2323 296Q2319 298 2317 302Q2313 313 2312 314Q2311 316 2306 319Q2302 321 2302 324Q2302 327 2294 331Q2290 333 2286 334Q2282 335 2280 339Q2274 350 2265 362Q2257 375 2255 389Q2245 395 2240 403Q2236 411 2222 413Q2214 403 2211 391Q2208 380 2198 372L2198 359Q2193 353 2187 346Q2182 339 2183 331Q2175 329 2175 323Q2175 317 2171 312Q2169 309 2166 308Q2164 307 2164 302Q2159 292 2157 286Q2155 280 2152 275Q2141 270 2143 266Q2145 262 2142 255Q2138 248 2132 245Q2127 243 2129 232Q2118 222 2110 209Q2103 197 2105 182Q2115 183 2125 182Q2135 181 2145 181Q2156 181 2165 185Q2175 189 2186 189Q2199 189 2212 182Q2225 176 2237 182Q2242 180 2245 178Q2248 176 2253 174Q2286 168 2320 179Q2330 175 2335 174Q2338 176 2346 177Q2354 178 2362 179Q2371 180 2377 182Q2384 184 2383 187Q2390 191 2394 191Q2399 191 2399 202Q2399 208 2394 215Q2389 222 2382 229Q2375 237 2369 244Q2363 252 2362 259Z" fill="#fff" style=""></path></g></g></g></svg>